HIERARCHY
ROOT joint_Root
{
	OFFSET 0.0 0.0 0.0
	CHANNELS 6 Xposition Yposition Zposition Zrotation Xrotation Yrotation 
	JOINT Hips
	{
		OFFSET -0.726466 93.3139 -2.00062
		CHANNELS 6 Xposition Yposition Zposition Zrotation Xrotation Yrotation 
		JOINT Spine
		{
			OFFSET 15.7357 0.0 0.0
			CHANNELS 6 Xposition Yposition Zposition Zrotation Xrotation Yrotation 
			JOINT Chest
			{
				OFFSET 8.98455 -0.406207 0.0
				CHANNELS 6 Xposition Yposition Zposition Zrotation Xrotation Yrotation 
				JOINT Neck
				{
					OFFSET 16.3773 0.0 0.0
					CHANNELS 6 Xposition Yposition Zposition Zrotation Xrotation Yrotation 
					JOINT Head
					{
						OFFSET 6.45672 0.0 0.0
						CHANNELS 6 Xposition Yposition Zposition Zrotation Xrotation Yrotation 
						End Site
						{
							OFFSET 0.0 0.0 0.0
						}
					}
				}
				JOINT Shoulder_L
				{
					OFFSET 12.9942 -0.242716 4.98039
					CHANNELS 6 Xposition Yposition Zposition Zrotation Xrotation Yrotation 
					JOINT UpperArm_L
					{
						OFFSET 5.34809 0.0 0.0
						CHANNELS 6 Xposition Yposition Zposition Zrotation Xrotation Yrotation 
						JOINT LowerArm_L
						{
							OFFSET 24.3286 1.87007e-05 0.0
							CHANNELS 6 Xposition Yposition Zposition Zrotation Xrotation Yrotation 
							JOINT Hand_L
							{
								OFFSET 22.2916 0.0 0.0
								CHANNELS 6 Xposition Yposition Zposition Zrotation Xrotation Yrotation 
								End Site
								{
									OFFSET 0.0 0.0 0.0
								}
							}
						}
					}
				}
				JOINT Shoulder_R
				{
					OFFSET 12.9945 -0.242716 -4.98039
					CHANNELS 6 Xposition Yposition Zposition Zrotation Xrotation Yrotation 
					JOINT UpperArm_R
					{
						OFFSET -5.34813 0.0 0.0
						CHANNELS 6 Xposition Yposition Zposition Zrotation Xrotation Yrotation 
						JOINT LowerArm_R
						{
							OFFSET -24.3289 0.000322201 0.0
							CHANNELS 6 Xposition Yposition Zposition Zrotation Xrotation Yrotation 
							JOINT Hand_R
							{
								OFFSET -22.2915 -0.000108084 0.0
								CHANNELS 6 Xposition Yposition Zposition Zrotation Xrotation Yrotation 
								End Site
								{
									OFFSET 0.0 0.0 0.0
								}
							}
						}
					}
				}
			}
		}
		JOINT UpperLeg_L
		{
			OFFSET -2.19248 -6.46944 0.0
			CHANNELS 6 Xposition Yposition Zposition Zrotation Xrotation Yrotation 
			JOINT LowerLeg_L
			{
				OFFSET 39.0811 0.0 -1.23785e-05
				CHANNELS 6 Xposition Yposition Zposition Zrotation Xrotation Yrotation 
				JOINT Foot_L
				{
					OFFSET 40.9854 0.0 -1.26872e-05
					CHANNELS 6 Xposition Yposition Zposition Zrotation Xrotation Yrotation 
					JOINT Toes_L
					{
						OFFSET 11.7543 0.0 0.0
						CHANNELS 6 Xposition Yposition Zposition Zrotation Xrotation Yrotation 
						End Site
						{
							OFFSET 0.0 0.0 0.0
						}
					}
				}
			}
		}
		JOINT UpperLeg_R
		{
			OFFSET -2.19251 6.46944 0.0
			CHANNELS 6 Xposition Yposition Zposition Zrotation Xrotation Yrotation 
			JOINT LowerLeg_R
			{
				OFFSET -39.0811 -0.00228153 -0.0401928
				CHANNELS 6 Xposition Yposition Zposition Zrotation Xrotation Yrotation 
				JOINT Foot_R
				{
					OFFSET -40.9854 0.0 0.0
					CHANNELS 6 Xposition Yposition Zposition Zrotation Xrotation Yrotation 
					JOINT Toes_R
					{
						OFFSET -11.7543 0.0 0.0
						CHANNELS 6 Xposition Yposition Zposition Zrotation Xrotation Yrotation 
						End Site
						{
							OFFSET 0.0 0.0 0.0
						}
					}
				}
			}
		}
	}
}
MOTION
Frames:	6
Frame Time:	0.0333333
0.000000 0.000000 0.000000 0.000000 0.000000 -0.000000 1.245560 83.174600 -53.159100 90.191500 -11.058200 -4.730330 15.735700 0.000005 -0.000001 114.909000 81.800000 -113.777000 8.984550 -0.406207 -0.000000 7.080050 6.876220 1.837170 16.377300 -0.000001 -0.000001 -2.414590 0.441182 0.409245 6.456720 -0.000001 -0.000000 -0.975746 -0.923151 -6.279510 12.994200 -0.242716 4.980390 -88.572200 -3.234880 -66.174700 5.348090 -0.000007 -0.000001 -68.501600 37.088600 17.274100 24.328600 0.000019 0.000005 7.020860 2.768930 -68.601000 22.291600 -0.000001 0.000005 -10.063200 5.650440 -15.055200 12.994500 -0.242716 -4.980390 88.346100 5.843840 -74.168000 -5.348130 -0.000001 -0.000004 -52.239000 19.549300 -37.932900 -24.328900 0.000322 -0.000009 0.327349 -0.098078 -106.848000 -22.291500 -0.000108 -0.000004 15.585200 5.651750 -15.181300 -2.192480 -6.469440 -0.000000 172.489000 -11.562400 -50.545200 39.081100 -0.000007 -0.000012 -0.726125 -0.560869 127.682000 40.985400 -0.000006 -0.000013 11.848600 -7.056350 -32.120700 11.754300 -0.000000 0.000003 -0.008840 -0.094762 -20.436500 -2.192510 6.469440 -0.000001 -178.696000 5.303800 168.464000 -39.081100 -0.002282 -0.040193 0.228105 -0.180685 51.217000 -40.985400 0.000008 0.000006 13.231100 -0.241738 -88.406300 -11.754300 -0.000006 -0.000006 -0.126192 -0.282708 -24.264900
0.000000 0.000000 0.000000 0.000000 0.000000 -0.000000 1.613410 86.495400 -41.362700 93.083600 -12.373700 -5.951710 15.735700 0.000005 -0.000001 126.108000 81.897400 -126.604000 8.984550 -0.406207 -0.000000 5.427180 9.538550 -1.445930 16.377300 -0.000001 -0.000001 -1.607760 0.500896 0.630442 6.456720 -0.000001 -0.000000 0.256674 -3.022140 -4.364340 12.994200 -0.242716 4.980390 -87.517600 -5.284990 -64.795700 5.348090 -0.000007 -0.000001 -69.661000 36.635900 23.203900 24.328600 0.000019 0.000005 4.945520 1.285580 -75.468000 22.291600 -0.000001 0.000005 -9.717790 5.638560 -14.008100 12.994500 -0.242716 -4.980390 88.709000 4.531060 -74.078400 -5.348130 -0.000001 -0.000004 -52.838800 21.291000 -40.410800 -24.328900 0.000322 -0.000009 -1.314880 0.536314 -112.185000 -22.291500 -0.000108 -0.000004 14.712000 5.635100 -13.701200 -2.192480 -6.469440 -0.000000 168.794000 -8.825440 -52.132000 39.081100 -0.000007 -0.000012 -0.396092 -0.152250 111.027000 40.985400 -0.000006 -0.000013 12.240800 -12.411900 -42.127700 11.754300 -0.000000 0.000003 -0.009289 -0.098260 -20.579400 -2.192510 6.469440 -0.000001 175.560000 4.396000 178.430000 -39.081100 -0.002282 -0.040193 0.134737 -0.158937 39.594500 -40.985400 0.000008 0.000006 12.278200 4.071140 -73.711100 -11.754300 -0.000006 -0.000006 -0.126799 -0.506704 -37.871400
0.000000 0.000000 0.000000 0.000000 0.000000 -0.000000 1.771460 90.412100 -30.012900 94.344600 -11.787700 -7.613720 15.735700 0.000005 -0.000001 132.739000 82.227000 -134.189000 8.984550 -0.406207 -0.000000 3.842850 10.586000 -3.259660 16.377300 -0.000001 -0.000001 -0.996473 0.496507 0.365227 6.456720 -0.000001 -0.000000 0.899356 -4.525220 -3.344850 12.994200 -0.242716 4.980390 -86.661400 -6.943330 -64.239800 5.348090 -0.000007 -0.000001 -71.413800 34.567000 27.657900 24.328600 0.000019 0.000005 4.098920 0.682380 -80.567700 22.291600 -0.000001 0.000005 -8.487300 5.629630 -13.311700 12.994500 -0.242716 -4.980390 88.943600 3.614780 -73.697200 -5.348130 -0.000001 -0.000004 -53.259400 24.877100 -41.069000 -24.328900 0.000322 -0.000009 -0.452397 0.200833 -113.934000 -22.291500 -0.000108 -0.000004 10.739900 5.609230 -11.890900 -2.192480 -6.469440 -0.000000 167.990000 -5.852490 -51.052100 39.081100 -0.000007 -0.000012 -0.181172 0.003835 88.790100 40.985400 -0.000006 -0.000013 9.777420 -18.880400 -49.563200 11.754300 -0.000000 0.000003 -0.007611 -0.084836 -20.031000 -2.192510 6.469440 -0.000001 172.249000 5.879570 -175.107000 -39.081100 -0.002282 -0.040193 0.056199 -0.094576 29.218000 -40.985400 0.000008 0.000006 8.775080 8.884850 -49.353000 -11.754300 -0.000006 -0.000006 -0.264373 -0.742653 -48.962200
0.000000 0.000000 0.000000 0.000000 0.000000 -0.000000 1.332390 93.468200 -19.000300 92.644000 -9.834630 -7.433770 15.735700 0.000005 -0.000001 133.801000 82.196900 -134.962000 8.984550 -0.406207 -0.000000 3.664380 10.829800 -2.673710 16.377300 -0.000001 -0.000001 -0.856954 0.088832 0.017491 6.456720 -0.000001 -0.000000 1.371700 -5.649040 -3.199120 12.994200 -0.242716 4.980390 -86.016600 -8.347600 -64.374900 5.348090 -0.000007 -0.000001 -73.535300 31.777900 30.318900 24.328600 0.000019 0.000005 2.752030 0.299403 -83.799500 22.291600 -0.000001 0.000005 -7.454000 5.619290 -12.573400 12.994500 -0.242716 -4.980390 89.097200 3.036050 -73.431400 -5.348130 -0.000001 -0.000004 -52.739200 29.090100 -40.889700 -24.328900 0.000322 -0.000009 -0.019789 0.008100 -111.986000 -22.291500 -0.000108 -0.000004 9.339230 5.585290 -10.498500 -2.192480 -6.469440 -0.000000 170.992000 -4.682570 -44.172500 39.081100 -0.000007 -0.000012 -0.036391 0.018906 62.553000 40.985400 -0.000006 -0.000013 8.614640 -15.212300 -56.587000 11.754300 -0.000000 0.000003 -0.007767 -0.086133 -20.084000 -2.192510 6.469440 -0.000001 170.840000 10.425000 -169.335000 -39.081100 -0.002282 -0.040193 0.048528 -0.102866 23.727600 -40.985400 0.000008 0.000006 -2.189670 9.367590 -29.858500 -11.754300 -0.000006 -0.000006 -0.022983 -0.183285 -24.067500
0.000000 0.000000 0.000000 0.000000 0.000000 -0.000000 0.453756 94.791600 -8.220400 90.669700 -9.434680 -8.386870 15.735700 0.000005 -0.000001 137.997000 82.206600 -138.830000 8.984550 -0.406207 -0.000000 2.801290 11.608400 -1.954620 16.377300 -0.000001 -0.000001 -1.423620 -0.292667 -0.099100 6.456720 -0.000001 -0.000000 2.015080 -6.594360 -3.882160 12.994200 -0.242716 4.980390 -85.687400 -9.156450 -64.644100 5.348090 -0.000007 -0.000001 -75.264400 28.897900 31.390500 24.328600 0.000019 0.000005 2.308480 0.167937 -85.840100 22.291600 -0.000001 0.000005 -6.607720 5.609660 -11.938200 12.994500 -0.242716 -4.980390 89.350500 2.228520 -73.748300 -5.348130 -0.000001 -0.000004 -53.160800 32.825300 -38.613300 -24.328900 0.000322 -0.000009 0.857985 -0.276333 -107.875000 -22.291500 -0.000108 -0.000004 8.890340 5.576930 -10.047700 -2.192480 -6.469440 -0.000000 173.670000 -6.970060 -35.421300 39.081100 -0.000007 -0.000012 -0.008081 0.012968 31.931800 40.985400 -0.000006 -0.000013 1.858730 -4.246980 -61.277100 11.754300 -0.000000 0.000003 -0.007350 -0.082651 -19.941800 -2.192510 6.469440 -0.000001 172.129000 10.277900 -168.523000 -39.081100 -0.002282 -0.040193 0.094551 -0.157303 30.117400 -40.985400 0.000008 0.000006 -0.777181 7.173210 -31.458000 -11.754300 -0.000006 -0.000006 -0.022850 -0.182589 -24.038800
0.000000 0.000000 0.000000 0.000000 0.000000 -0.000000 -0.670394 94.340800 3.026700 86.768600 -9.501120 -8.123360 15.735700 0.000005 -0.000001 140.205000 81.924800 -139.980000 8.984550 -0.406207 -0.000000 2.602330 12.388300 0.168810 16.377300 -0.000001 -0.000001 -1.832880 -0.448509 0.139722 6.456720 -0.000001 -0.000000 1.678330 -7.034560 -4.330830 12.994200 -0.242716 4.980390 -85.724300 -9.025340 -64.517700 5.348090 -0.000007 -0.000001 -76.446700 25.621100 30.133200 24.328600 0.000019 0.000005 2.927680 0.214822 -85.807800 22.291600 -0.000001 0.000005 -6.080710 5.603880 -11.576700 12.994500 -0.242716 -4.980390 89.545800 1.607300 -74.218800 -5.348130 -0.000001 -0.000004 -55.648200 35.831300 -33.436200 -24.328900 0.000322 -0.000009 2.179460 -0.452784 -101.744000 -22.291500 -0.000108 -0.000004 9.134910 5.584950 -10.478600 -2.192480 -6.469440 -0.000000 177.070000 -12.684900 -26.220100 39.081100 -0.000007 -0.000012 -0.007707 0.062348 7.045670 40.985400 -0.000006 -0.000013 -7.804750 6.836580 -63.491800 11.754300 -0.000000 0.000003 -0.008551 -0.092481 -20.343300 -2.192510 6.469440 -0.000001 177.348000 6.097950 -169.249000 -39.081100 -0.002282 -0.040193 0.137756 -0.145280 42.790400 -40.985400 0.000008 0.000006 -0.463090 2.108460 -31.581800 -11.754300 -0.000006 -0.000006 -0.021754 -0.176819 -23.800700
